<mxfile host="app.diagrams.net" modified="2024-01-01T23:14:13.402Z" agent="Mozilla/5.0 (Macintosh; Intel Mac OS X 10_15_7) AppleWebKit/537.36 (KHTML, like Gecko) Chrome/116.0.0.0 Safari/537.36" version="22.1.16" etag="pZ1DXuKx2CGO6thd4ELF" type="github">
  <diagram name="第 1 页" id="s1BtpjJJAsWHGsUk4jsW">
    <mxGraphModel>
      <root>
        <mxCell id="0" />
        <mxCell id="1" parent="0" />
      </root>
    </mxGraphModel>
  </diagram>
</mxfile>
